<svg width="450" height="450" viewBox="0 0 450 450" fill="none" xmlns="http://www.w3.org/2000/svg">
  <!-- Background elements -->
  <circle cx="225" cy="225" r="160" fill="#1d1e30" />
  <circle cx="225" cy="225" r="130" fill="#292A43" />
  
  <!-- Globe grid lines -->
  <circle cx="225" cy="225" r="120" stroke="#4d4f66" stroke-width="1.5" fill="none" />
  <circle cx="225" cy="225" r="90" stroke="#4d4f66" stroke-width="1.5" fill="none" />
  <circle cx="225" cy="225" r="60" stroke="#4d4f66" stroke-width="1.5" fill="none" />
  <path d="M225 105V345" stroke="#4d4f66" stroke-width="1.5" />
  <path d="M105 225H345" stroke="#4d4f66" stroke-width="1.5" />
  <path d="M153 140L297 310" stroke="#4d4f66" stroke-width="1.5" />
  <path d="M297 140L153 310" stroke="#4d4f66" stroke-width="1.5" />
  
  <!-- News document -->
  <rect x="160" y="180" width="130" height="160" rx="4" fill="#666980" />
  <rect x="170" y="200" width="110" height="10" rx="2" fill="#d5d7e0" />
  <rect x="170" y="220" width="110" height="6" rx="2" fill="#d5d7e0" />
  <rect x="170" y="235" width="110" height="6" rx="2" fill="#d5d7e0" />
  <rect x="170" y="250" width="60" height="6" rx="2" fill="#d5d7e0" />

  <!-- Magnifying glass -->
  <circle cx="280" cy="170" r="40" stroke="#0c89e3" stroke-width="8" fill="none" />
  <path d="M310 200L330 220" stroke="#0c89e3" stroke-width="8" stroke-linecap="round" />
  
  <!-- Checkmark -->
  <circle cx="200" cy="310" r="25" fill="#0c89e3" />
  <path d="M185 310L195 320L215 300" stroke="white" stroke-width="4" stroke-linecap="round" stroke-linejoin="round" />

  <!-- Data points and connections -->
  <circle cx="120" cy="150" r="6" fill="#36a6f6" />
  <circle cx="330" cy="130" r="6" fill="#36a6f6" />
  <circle cx="350" cy="280" r="6" fill="#36a6f6" />
  <circle cx="100" cy="300" r="6" fill="#36a6f6" />
  
  <path d="M120 150L200 310" stroke="#36a6f6" stroke-width="1.5" stroke-dasharray="4 4" />
  <path d="M330 130L200 310" stroke="#36a6f6" stroke-width="1.5" stroke-dasharray="4 4" />
  <path d="M350 280L200 310" stroke="#36a6f6" stroke-width="1.5" stroke-dasharray="4 4" />
  <path d="M100 300L200 310" stroke="#36a6f6" stroke-width="1.5" stroke-dasharray="4 4" />
</svg> 